<svg width="512" height="512" viewBox="0 0 512 512" fill="none" xmlns="http://www.w3.org/2000/svg">
<g clip-path="url(#clip0_2001_2)">
<path d="M512 0H0V512H512V0Z" fill="black"/>
<path d="M34.875 290.188L91.1875 219.625H39V208.688H107.188V219.375L50.5625 289.562H107.188V300.5H34.875V290.188ZM119.938 208.688H132.062V253.438L176.812 208.688H194L155.812 245.688L195.062 300.5H178.875L146.75 254.438L132.062 268.5V300.5H119.938V208.688ZM212.562 208.688L238.938 286.875L265 208.688H278.938L245.438 300.5H232.25L198.812 208.688H212.562ZM333.375 250.75C339.208 250.75 343.812 249.583 347.188 247.25C350.604 244.917 352.312 240.708 352.312 234.625C352.312 228.083 349.938 223.625 345.188 221.25C342.646 220 339.25 219.375 335 219.375H304.625V250.75H333.375ZM292.188 208.688H334.688C341.688 208.688 347.458 209.708 352 211.75C360.625 215.667 364.938 222.896 364.938 233.438C364.938 238.938 363.792 243.438 361.5 246.938C359.25 250.438 356.083 253.25 352 255.375C355.583 256.833 358.271 258.75 360.062 261.125C361.896 263.5 362.917 267.354 363.125 272.688L363.562 285C363.688 288.5 363.979 291.104 364.438 292.812C365.188 295.729 366.521 297.604 368.438 298.438V300.5H353.188C352.771 299.708 352.438 298.688 352.188 297.438C351.938 296.188 351.729 293.771 351.562 290.188L350.812 274.875C350.521 268.875 348.292 264.854 344.125 262.812C341.75 261.688 338.021 261.125 332.938 261.125H304.625V300.5H292.188V208.688ZM382.875 208.688H400.688L427.062 286.312L453.25 208.688H470.875V300.5H459.062V246.312C459.062 244.438 459.104 241.333 459.188 237C459.271 232.667 459.312 228.021 459.312 223.062L433.125 300.5H420.812L394.438 223.062V225.875C394.438 228.125 394.479 231.562 394.562 236.188C394.688 240.771 394.75 244.146 394.75 246.312V300.5H382.875V208.688Z" fill="white"/>
</g>
<defs>
<clipPath id="clip0_2001_2">
<rect width="512" height="512" fill="white"/>
</clipPath>
</defs>
</svg>
